{"title":"Little Mix - Little Me 720p HD x264 AAC E-Subs [GWC].mp4","uid":9364861,"size":39014595,"categoryP":"video","categoryS":"music_videos","magnet":"?xt=urn:btih:f88e4e99b571472dffcbab07580a454867096591&amp;dn=Little+Mix+-+Little+Me+720p+HD+x264+AAC+E-Subs+%5BGWC%5D.mp4&amp;tr=udp%3A%2F%2Ftracker.openbittorrent.com%3A80&amp;tr=udp%3A%2F%2Fopen.demonii.com%3A1337&amp;tr=udp%3A%2F%2Ftracker.coppersurfer.tk%3A6969&amp;tr=udp%3A%2F%2Fexodus.desync.com%3A6969","seeders":0,"leechers":0,"uploader":"canc232","files":1,"time":1387392327,"description":"Little Mix - Little Me 720p HD (Leaked Video) x264 AAC E-Subs [GWC] \n\nThe video is not on vevo/youtube yet.\nEnjoy!!\n\n \nCOVER : &lt;a href=&quot;\nhttp://s20.postimg.org/ny1wbo325/LMX.jpg&quot; rel=&quot;nofollow&quot; target=&quot;_NEW&quot;&gt;\nhttp://s20.postimg.org/ny1wbo325/LMX.jpg&lt;/a&gt;\n\n\nTHUMBNAIL IMAGE ; &lt;a href=&quot;\nhttp://img824.imageshack.us/img824/4391/yu6b.jpg&quot; rel=&quot;nofollow&quot; target=&quot;_NEW&quot;&gt;\nhttp://img824.imageshack.us/img824/4391/yu6b.jpg&lt;/a&gt;\n\n\nMEDIA INFO :\n\nGeneral \nFormat : MPEG-4 \nFormat profile : Base Media \nFile size : 37.2 MiB \nDuration : 3mn 57s \nOverall bit rate mode : Variable \nOverall bit rate : 1 312 Kbps \n\nVideo \nFormat : AVC \nFormat profile : &lt;a class=&quot;__cf_email__&quot; href=&quot;/cdn-cgi/l/email-protection&quot; data-cfemail=&quot;3c74555b547c700f120d&quot;&gt;[email&amp;#160;protected]&lt;/a&gt;&lt;script data-cfhash='f9e31' type=&quot;text/javascript&quot;&gt;\n/* &lt;![CDATA[ */!function(){try{var t=&quot;currentScript&quot;in document?document.currentScript:function(){for(var t=document.getElementsByTagName(&quot;script&quot;),e=t.length;e--;)if(t[e].getAttribute(&quot;data-cfhash&quot;))return t[e]}();if(t&amp;&amp;t.previousSibling){var e,r,n,i,c=t.previousSibling,a=c.getAttribute(&quot;data-cfemail&quot;);if(a){for(e=&quot;&quot;,r=parseInt(a.substr(0,2),16),n=2;a.length-n;n+=2)i=parseInt(a.substr(n,2),16)^r,e+=String.fromCharCode(i);e=document.createTextNode(e),c.parentNode.replaceChild(e,c)}t.parentNode.removeChild(t);}}catch(u){}}()/* ]]&gt; */&lt;/script&gt; \nFormat settings, CABAC : Yes  \nDuration : 3mn 51s \nBit rate : 1 258 Kbps \nWidth : 1 280 pixels \nHeight : 720 pixels \nDisplay aspect ratio : 16:9 \nFrame rate : 25.000 fps \nStream size : 34.8 MiB (93%) \nTitle : Little Mix - Little Me 720p HD x264 AAC E-Subs [GWC] \nLanguage : English \n\nAudio \nFormat : AAC \nFormat profile : LC \nDuration : 3mn 51s \nBit rate mode : Variable  \nChannel(s) : 2 channels \nSampling rate : 48.0 KHz \nStream size : 2.37 MiB \nLanguage : English \n\nText \nFormat : Timed Text \nDuration : 3mn 57s \nStream size : 2.75 KiB (0%) \nTitle : English SUbtitle by [GWC] \nLanguage : English ","torrent":{"xt":"urn:btih:f88e4e99b571472dffcbab07580a454867096591","amp;dn":"Little+Mix+-+Little+Me+720p+HD+x264+AAC+E-Subs+%5BGWC%5D.mp4","amp;tr":["udp%3A%2F%2Ftracker.openbittorrent.com%3A80","udp%3A%2F%2Fopen.demonii.com%3A1337","udp%3A%2F%2Ftracker.coppersurfer.tk%3A6969","udp%3A%2F%2Fexodus.desync.com%3A6969"],"infoHash":"f88e4e99b571472dffcbab07580a454867096591","infoHashBuffer":{"type":"Buffer","data":[248,142,78,153,181,113,71,45,255,203,171,7,88,10,69,72,103,9,101,145]},"announce":[],"urlList":[]}}